<svg xmlns="http://www.w3.org/2000/svg" id="Tunefish Logo" viewBox="314 -99.6 927.9 449.6"><style>.st0{fill:#CC1414;}</style><path d="M1002.8-82.3c-1.3-1.1-2.4.2-4.2.4.1 1.2 4.3.8 4.2-.4 1.8-.2 4.1-1 2.5 1 1.8-.2 3.4-2.7 5.3-1.1-.6.1-.6.1-1.2.1.1.6 1.2.5 1.2-.1 4.3 1.4 8.3-1.9 14.8-3.1-1.1 1.3-2.9.9-4.1 1.6 9.2 1.6 19.1-1.7 28.8-1.3 5 2 10.5-3.3 13.9.6-9.1-.4-28.2 1.3-34.6 3.6.1 1.2 1.1-.7 1.2.5-2.7 3.8-11.8 2.2-15.4 3.2 3.8 2.7 10.2-.3 16.2-.2-11.6 5.2-26.7 4.7-39.2 5.8.1 1.2.8 1.7 2 1.6-23.8 3.9-46 4.6-67.9 9-31.2 1.5-71.3 10.4-102.6 10.7.1.6 1.2.5 1.8.4-6 .5-18 1-22.6 3.8-1.8.2-2.5-1-4.3-.8-26.5 6.5-52.4 7-82 12.6-.6.1-1.2.1-1.3-1.1-45.5 9.4-102.1 16.8-144 25.9-.1-1.2-1.8-.4-1.4-1.7-.5.6-.4 1.8-1.6 2.5-10.2.3-17.7 4.6-28.5 4.9.5-.7.5-1.2-.1-1.2-.6.1-.5 1.2.1 1.2-5.9 1.1-8.2 2.5-12.6 1.1-1.1 1.3-5.9 1.7-10.5 3.9 1.6-2-2.5-1.6-.6-.5-2.9 1.5-5.8 2.9-10 2.7-4.5 3.4-8.5-.5-11.2 2.8-17.4.3-31.3 7-49.2 9.1-27.5 9-52.5 12.4-78.1 23.1-13.5 4.2-33.1 7.7-36.6 21.9-1.7.8-2.2 2-4 2.8-1.8-.4-3.1-1.5-3.9-3.3-1.1.7-1.6 1.9-3.5 1.5-8.6-10.1-4.3-35.8 9.6-35.8 1.1-1.3 1.6-2 4-2.8-1 1.9-3.3 3.3-5.6 4.7 8.2-2.5 19.2-7.7 29.2-11-.5 1.2-2.2 2-4 2.2 1.4 1.7 2.9-.9 5.4-.5.1 1.2-.5 1.2-1.7 1.4.7 1.1 4.3.8 4.1-1 1.3 1.1 1.8-.2 3.6-.3-.1-1.2-2.4.2-3.6-.3.4-2.4 6.5-1.2 6.4-3 2.4-.2.1 1.2 1.4 1.7 2.4.4 3.5-1.5 5.3-1.7-1.9-1-6-.1-6.2-1.9 1.2-.1 1.8-.2 3-.3.2 1.8 5.3-1.1 2.3-.8.5-1.2 4.2-.4 4.3 1.4-.6.1-1.2-.5-1.8.2.7 1.1 4.2-.4 6 .1l.1.6c.6-.1.5-.7-.1-.6-.1-.6-.1-.6-.1-1.2 6 .1 15.8-5 20.2-3.6 1.5-3.1 4.7-1.6 8.3-1.9 4.6-2.2 11.5-5.8 17.1-4.5 1.2-.1.4-1.8 1.6-2 5.4.1 6.5-1.2 12.6-1.1 2.6-4.4 10.2-.9 10.4-4.5 3.1.9 2.4.4 6.1.7.1.6-1.1.7-1.1 1.3-1.1.7-3-.3-2.9.9-.6-.5-1.2-.5-1.2.1.1.6 1.2.5 1.2-.1.6-.1 3 .3 2.9-.9 2.4-.2 3.4-2.1 4.5-3.4.6-.1 1.2-.1 1.8-.2 3.6.3 4.6-2.2 9.6-.8 1.3 1.1 4.8-.4 7.2 0-1.3-1.1-4.8.4-7.2 0 1-1.9 3.5-.9 4.7-1-.1-1.2 5.2-2.9 4.7-1.6 2-4.4 7.8-.7 13-2.9-.5.7-1.1 1.3-2.3 1.4 3.1 1.5 7.8-.7 10.7-2.1.4-1.8 4.7-1.6 7.6-3.1 1.8.4-.5 1.2-.4 1.8 3.6.3 9-.8 13.6-2.4-3.7-1.5-8.9 2-12 1 6.9-4.2 16.3 1 24.3-3.9-.1-.6-1.2-.5-2.4-.4-.1-.6 1.1-.7 1.7-.8-.1-.6-1.2-.5-2.4-.4-.1-1.2 2.9-.9 3.6-.3.1.6.2 1.8.2 2.4 4.1-1 7.7-1.9 11.9-2.2-.1-1.2-.7-1.1-1.9-1-.1-1.2 1.7-.8 1-2.5.7 1.1 3.7 1.5 4.1-1 2 2.2 5.4-.5 7.9 1.1-1.1.7.1.6 0 0 .6-.1 1.2.5 1.8-.2 1.3 1.1 4.2-.4 5.4.1.5-.6-.2-1.8.9-3.1.6-.1.7.5.7 1.1-1.1.7.1.6 0 0 .6-.1.5-1.2.4-1.8.6-.1 3.2 2.1.8 1.7 9.1 1 16.6-3.3 27.3-4.2-.1-.6-1.2-.5-1.9-1-.1-1.2 3-.3 4.1-1 .1 1.2-1.7.8-1.6 2 14.2-3 26.2-3.5 39.1-7-1.4-1.7-4.2.4-6 .5.9-3.1 5.3-1.1 7-2.4.1.6-.5.6-.4 1.8.1 1.2 1.7-.8 3.6-.3-.1-1.2-2.9.9-2-1.6 2.3-.8 5.4-.5 8.3-1.3-.5 1.2-1 2.5-2.8 2.1 13.7-1.2 26.7-4.7 40.4-5.9-1.1 1.3.1.6.8 1.7.4-1.8 3.5-1.5 3.9-3.4 12-.4 26-5.9 34-3.6 11-4.6 25.4-5.8 33.9-5.4 3.4-2.1 5.9-1.7 8.7-4.4.6-.1.8 1.7-.5 1.2 10.3.3 19-3.5 29.3-2.6.6-.1.5-.7-.1-.6 6-.5 11.2-2.8 19-3.5-.1-.6-1.2-.5-2.4-.4-.8-1.7 4.7-1 3 .3 4.2.2 2.9-1.5 5.8-2.3 2.4-.2.1 1.2 1.4 1.7 7.8-.1 11.3-1.6 17.9-2.2-.1-1.2-.7-1.1-1.9-1 .5-.7 1.7-.8 2.9-1.5.1.6-.5 1.2-.4 1.8 7.4 1.8 15.3-3.8 17.8-2.8-.6.1-.6.1-1.2.1.1.6 1.2.5 1.2-.1 13.3 0 26.9-2.4 40.6-4.2 1.2-.1 1.2.5.7 1.1 4.7-1 5.2-2.3 10.6-2.7.1.6.1 1.2.2 1.8 17.7-4.6 31-3.9 45.2-6.4 1.3 1.1 6-.5 7.7-1.3-.1-.6-.6-.5-1.2-.5-.1-1.2 3-.3 4.1-1 .1 1.2-1.7.8-2.3 1.4 5.5.7 9-.8 13.9.6.1 1.2-.5 1.2-.4 2.4 6.5-1.2 9.6-.8 14.9-1.9-6.7-.6-10.8.3-15.8-1 6.4-2.4 14.5-.1 19.6-2.9 1.5 2.9 7-2.4 6.1 1.3 5.2-2.9 14.3-1.3 22-3.1-.3 3.6-5.2 2.3-9.5 2-7.6 3.1-15.5 2-22 3.1 3.8 2.1 10.2-.3 13.9 0 0 2.4-3.8.3-3.6 2.1zM337.2 21.1c-.5 1.2-1.7 1.4-2.9 1.5-.1-1.2 1.1-1.3 2.9-1.5zm23.2-3.2l.1.6c-.6 0-.7-.6-.1-.6zm4.6-3.4c-.1-.6.5-.6 1.1-.7.1.5-.5.6-1.1.7zm11.7-3.5c-.1-.6.5-.6 1.1-.7.1.6-.5.7-1.1.7zm8.2-2.5c.5-1.2 3.4-2.1 3.6.3-1.2.1-1.7.8-1.7 1.4-2.3.1.5-1.9-1.9-1.7zm12-.5c-1.3-1.1-.6.1-2.4.2-.1-1.7 2.8-2.6 2.4-.2zm24-8.7c-.1-.6 1.1-.7 1.7-.8.1.7-1.1.8-1.7.8zM425-1c.1.6-.5 1.2-1.7 1.4-.6-1.2.5-1.3 1.7-1.4zm4.6 4.4c-2.4-.4.2 1.8 0 0 .6-.7 0-.6 0 0zm6.5-1.8c-1.1.7.1.6 0 0 .6-.6 0-.6 0 0zm9.5-1.4c1.2-.1 1.7-.8 2.3-1.4-1.2.1-3-.4-2.3 1.4zm5.3-1.7c-.6.1-1.8.2-1.7.8.6-.1 1.8-.2 1.7-.8zm18.9-4.7c-.7-.5-1.7.8-1.7.8-.6 1.2 2.3-.2 1.7-.8zm.6-6.6c-.1-1.2 1.8-.2 2.9-.9.1 1.2-2.3.8-2.9.9zm10.1 5.1c1.2-.1 2.4-.2 2.3-1.4-1.2.1-1.8.8-2.3 1.4zM546.6 60c.6-.1.5-1.2.4-1.8-.5 0-.4 1.2-.4 1.8-2.2 2-2 4.4-3.6 7.5-1.8-.4.4-1.8-.3-3.6.5-.6-.1-.6 0 0l-.6.1c1-2.5 3.2-4.5 3.6-7.5-2.1-2.8-6.3-3.1-8.8-4.6-.1-8.4 4.9-12.5 9.3-17.7 1.6-2 3.3-3.9 3.6-6.9.6-.1 1.1-.7 1-1.9 1.7-.8 2.1-3.2 2.6-5 2.7-3.3 5.3-7.7 5-11.9 9.5-1.4 19.5 2.5 23.7 9.4-1.7 15.2-7.3 27.1-9.6 41.8-.6.1-1.1.7-1.7.8-9.9 31.6-19.1 63.7-28.4 95.2.9 2.9-.1 5.4.1 7.8-7.4 18.1-6.1 26.4-11.2 43.7-5.4 27.6-10.7 56.4-16.2 83.3.1.6.1 1.2-1.1 1.3-2 18.8-7.7 36.2-8.3 56.7-3.6.3-6-.1-10.1 1.5-5.7-3.1-10.1-5.1-14.2-10.8 1.1-8.5 2.6-18.3 2-24.9.6-.1.7 1.1 1.3 1.1-.1-1.2-.2-2.4.3-3-.6.1-1.2.1-1.1 1.3-1.3-1.1-.5-5.4.8-4.9-.8-1.7-1.2.1-.9-3.5 2.7 2.8 2 1.6 2.3 5.8 2.3-1.4.7-5.5 2.3-8.6 2.4-.2-1 1.9.9 3.5 1.8-.2-.4-4.2 2-4.4.9 3.5-.8 4.9-.5 7.9 7.5-24.7 9-49 13.3-74.6 5.8-22.8 9.3-44.8 14.4-69.9 1.3 1.1.6-.1 1.7-.8.4-1.8-1.4-1.7-.9-3.5 3.9-10 4-16.6 6.5-29.5 7.6-22.5 12.7-47 20.8-71.2zm-62.3 244c-.1-1.2-.2-1.8-.3-3 1.3 1.1 1.5 3.5 1.6 4.7-1.2.1-.7-1.8-1.3-1.7zm.3-313.3c2.3-.8 3 .3 3.5-1.5-1.9.2-3.7-.3-3.5 1.5zm4.7-7.6c-.1-.6.5-.6 1.1-.7.1.6-.5.6-1.1.7zm2.4 316c-.1-1.2-.9-2.9 1-2.5-.6.7.2 2.4-1 2.5zm.6-6.1l-.1-.6c3-.8-2.6 3.9.1.6zm1-3.1c.1.6.1 1.2.2 1.8-.6.1-.7-.5-1.2-.5-.2-.6.4-1.2 1-1.3zm.5-1.2c.1.6.1 1.2-.5 1.2-.1-.6-.1-1.2.5-1.2zm0 0c-.9-2.9.9-3.7.7-6.1 1.3 1.7.3 4.8-.7 6.1zm1.3-12.2c.1.6.1.6.6.5.8 2.3-1.7.8-1.2-.5h.6zm.7.6c-.1-.6-.1-.6-.6-.5.5-1.2 1-2.5.9-3.7 1.9 1-.4 2.4.4 4.2h-.7zm7-291c-3-.3-3.5 1.5-6.5 1.2 1.1-.7 5.2-2.9 6.5-1.2zm-5 272.7c2.4-.2.2 2.4.3 3.6-1.9-.4.4-1.8-.3-3.6zm1.7 33.6c-.1-.6-1.2-.5-1.2.1.6-.1 1.3 1.1 1.2-.1zm.1-40.4c.2 2.4-.9 3.1-.1 5.4-1.9-1-.3-3.6-.5-5.4h.6zm.2-4.2c1.2.5.1 1.2.2 1.8-1.3-.5-.1-1.2-.2-1.8zm2.3-14.7c1.2-.1 1.5 3.5-.4 2.4.6-.6.6-1.2.4-2.4zm1.3 21c-.7-1.1 1.6-2-.2-2.4 0 .6-1.6 2.6.2 2.4zm1-30.2l-.1-.6c.6 0 .6.6.1.6zm.8 30c-1.8.2.8 2.4 0 0 1.8-.1-.8-2.3 0 0zm1.7-41.7c-.1-.6-.1-.6.5-.6.1.6.1.6-.5.6zm1.7 18.6c-.6.1-1.2.1-1.1.7.5-.1 1.1-.1 1.1-.7zm-.2-1.8c-1.1.7.1.6 0 0 .6-.7 0-.6 0 0zm2.7-37.6c.2 2.4-.3 3.6-.8 4.9-1.2-.5-.3-4.2.8-4.9zm0 0c-.1-1.2-.2-2.4.3-3 1.8.4-.4 1.8.3 3h-.6zm.3-3.7c-.1-.6.5-.6 1.1-.7.1.6-.5.7-1.1.7zm1.8-6.7c.8 1.7-.4 2.4-.3 3.6l-.6.1c-.8-1.7 1-1.9.3-3.6l.6-.1zm3.5-16c.8 1.7-.4 1.8-.3 3-1.3-.4-.3-2.9.3-3zm2.2-8.6c.2 2.4-.8 4.3-1.3 6.1-1.2-1.1.8-4.9 1.3-6.1zm1.3-5.6c.1 1.2.2 2.4-.4 2.4 0-.5-.2-2.3.4-2.4zm.4-2.4c.6.5.8 1.7-.4 2.4 0-.6-.2-2.4.4-2.4zm0 0c-.1-1.2 1.1-1.3.3-3 1.2-.1.8 2.3.3 3h-.6zm1.2-7.3c1.8.4.2 2.4.3 3.6-1.8-.5.5-1.9-.3-3.6zm2.7-10.5c.4 4.2-1.3 6.1-1.6 9.8-1.4-2.3 1.3-6.1 1-9.7l.6-.1zm1.4-4.9c.1 1.2-1.1 1.3-.3 3-1.2.1-.8-2.3-.3-3h.6zm1-147.1c.6-.1.6-.1.7.5.7.5 3 .3 5.4.1-1 1.9-3.5.9-7.1 1.8-.8-1.6 1.1-1.2 1-2.4zm.2 140.3c1.9 1-.3 3.6-.2 4.8-1.9-1 1-2.4.2-4.8zm1.9-5.6c.8 1.7-.4 2.4-.3 3.6l-.6.1c-.1-1.2-.3-3 .3-3.6l.6-.1zm0 0c.5-1.2-.4-4.2 2-4.4-1.7.8-.2 3.7-2 4.4zm3.4-9.9c-.4 1.8-.2 4.8-2 5 .4-1.8.9-3.1 1.4-4.9l.6-.1zm0 0c-.8-1.7.4-1.8.3-3 1.2.5.3 3-.3 3zm1.1-7.3c1.8.4.2 2.4.3 3.6-1.8-.5.5-1.9-.3-3.6zm2.5-6.3c.8 1.7-.4 1.8-.3 3-1.3-.4-.3-2.9.3-3zm.9-3.7c.2 1.8.3 3-.9 3.7-1.9-1 1.1-1.3.3-3.6l.6-.1zm0 0c-.2-1.8-.3-3.6 1.5-3.7-.5 1.2.2 2.4-1.5 3.7zm5.1-17.3c.9 3.5-2.3 8-3.2 11.7-1.3-1.1 1-2.5.2-4.8 1-2.5 2.1-3.8 2.4-6.8l.6-.1zM540.7-22c-.1-1.2 2.4-.2 3.5-.9.1 1.2-2.4.2-3.5.9zm9.1 14.9c-.6.1-1.2.1-1.1.7.5-.1 1.1-.1 1.1-.7zm.4-15.7c2.9-.9 5.4.1 5.9-1.7-3 .2-4.9-.8-5.9 1.7zm11.2-2.8c-2-1.6 3.4-2.1 4.1-1.6-.5 1.3-3.6.3-4.1 1.6zm2.7 2.8c.7 1.1.6-.1 0 0-.7-.6-.6 0 0 0zm2.9 12.4c-.6.1-1.2.1-1.1.7.5-.1 1.1-.1 1.1-.7zm3.7-19c-.1-.6.5-.6 1.1-.7.1.5-.5.6-1.1.7zm5.5.7c-1.2.1-3 .3-4.2.4-.1-1.3 4-2.8 4.2-.4zm-2.5-1.6c-.1-.6 1.1-.7 1.7-.8.1.6-1.1.7-1.7.8zm6.5 5.4c1.8.4 1.8.4 2.9-.9-.7-.5-2.4.3-2.9.9zm.1-4.8c-.1-1.2 2.4-.2 3.5-.9.2 1.2-2.3.2-3.5.9zm8.3-1.9c.1 1.2-2.3.8-2.9.9.4-1.9 1.2-.2 2.9-.9zm6.5-1.2c.1 1.2-2.4.2-3.5.9-.1-.6-.1-.6-.1-1.2 1.7-.7 1.9 1.1 3.6.3zm5.2 3.8c-2.4.2-2.9.9-4.8.4.2 2.4 4.9.8 4.8-.4zm15-7.4c.1 1.2-3 .3-3.5 1.5-3 .3-5.4.5-8.4.7-2.4.2-.1-1.2 1.1-.7l3.6-.3c1.2-1.2 4.8-.9 7.2-1.2zm-9.6.3c-.1-.6.5-.6 1.1-.7.1.6-.5.6-1.1.7zm12.9 3.7c-.6.1-1.2.1-1.1.7.6-.1 1.2-.1 1.1-.7zm-.3-4.2c-.1-.6.5-.7 1.1-.7.1.6-.5.6-1.1.7zm6-.5c-2.5-1 2.3-1.4 3.5-1.5 3 .3-1.7.8-2.9.9-.7 0-.7 0-.6.6zm8.7-3.8c-.1-.6.5-.6 1.1-.7.1.6-.5.6-1.1.7zm11 16.5c-2.4-.4.2 1.8 0 0 1.2-.1 2.4.4 2.3-.8-.6-.6-1.8-.5-2.3.8zm2.5-12.9c-.6.1-1.8.2-1.7.8.6-.1 1.8-.2 1.7-.8zm-1-5.3c-.1-.6.5-.7 1.1-.7.1.6-.5.6-1.1.7zm3.1.9c-.1-.6 1.1-.7 1.7-.8 0 .7-1.1.8-1.7.8zm7.7-1.3c.3-3 15.5-2 6.5-1.2-1.7.8-4.1 1-6.5 1.2zm4.5 3.9c-.6.1-1.8.2-1.7.8.6-.1 1.8-.2 1.7-.8zm7.9-6.1c-.1-.6.5-.6 1.1-.7.1.5-.5.6-1.1.7zm2.2 4c-.6.1-1.2.1-1.1.7.5-.1 1.1-.1 1.1-.7zm-.4-4.2c-.1-.6 1.1-.7 1.7-.8.1.6-1.1.7-1.7.8zm2.8 4c-.1-.6-1.2-.5-1.2.1.6-.1 1.3 1.1 1.2-.1zm-.4-4.8c-.1-.6.5-.6 1.1-.7 0 .6-.5.6-1.1.7zm1 4.7c1.2-.1 3 .3 2.3-1.4-.6.1-1.8.2-2.4.2 0 .6 0 .6.1 1.2zm4.2-7c-.1-.6.5-.6 1.1-.7.1.6-.5.7-1.1.7zm5.2 5c-1.7.8-1.8-.4-3-.3-.4 2.4 3.2 2.1 3 .3zm5-5.3c-1.1.7-2.8 2.1-4.1 1 1-1.3 1.7-.8 4.1-1zm2.1 4.1c-1.1.7-3-.3-2.9.9.7 1.1 2.5.3 2.9-.9zm1.2-.1c.2 1.7 2.4-.9 0 0-.6-.6-.6 0 0 0zm.3-4.3c-.1-1.2 1.8-.2 2.9-.9.1 1.3-2.3.9-2.9.9zm5.1 3.8c-1.1.7-2.5-1.6-3 .3.7.5 3.1.9 3-.3zm3.6-.3c.6-.1.6-.1 1.2-.1-.1-.6-.1-.6-.1-1.2-.6.1-.6.1-1.2.1.1.6.1.6.1 1.2zm8.7 9.5c-.6.1-1.2.1-1.1.7.5-.1 1.1-.2 1.1-.7zm17-18.4c-.1-.6 1.1-.7 1.2-.1.1 1.2-.6 0-1.2.1zm16.5 2.2c-2.5-.4.1 1.8 0 0 1.2-.1 1.2.5 1.8.4 1.1-1.3-1.9-1.6-1.8-.4zm4.6-2.2c-.6.1-1.2.1-1.1.7.6-.1 1.2-.1 1.1-.7zm.9-3.1c-.1-.6.5-.6 1.1-.7.1.6-.5.6-1.1.7zm5.4-.5c-.1-.6 1.1-.7 1.7-.8.1.6-1.1.7-1.7.8zm5.7 2.5c-1.2.1-2.4.2-3-.3-1 3.1 3.1 2.1 3 .3zm.8-3.7c-.1-.6 1.1-.7 1.7-.8.1.7-1.1.8-1.7.8zm5.7 3.1c-.6.1-1.2.1-1.1.7.6 0 1.2-.1 1.1-.7zm1.8-.1c-.6.1-1.2.1-1.1.7.6-.1 1.2-.1 1.1-.7zm3.8-5.2c-.1-.6 1.1-.7 1.7-.8.1.7-1.1.8-1.7.8zm4.6 4.4c1.2-.1 1.7-.8 1.7-1.4-1.2.2-1.7.8-1.7 1.4zm5.2-2.2c-2.4-.4-2.3.8-2.8 2.1 2.4-.2 4.8.2 4.6-2.2-.6.1-.6.1-1.2.1 0-.7-.6-.6-.6 0zm0 0l.6-.1c.1.6-.5.7-.6.1zm3.2 1.5c-.1-1.2 2.5 1 2.3-1.4-1.7.8-1.4-1.7-3.1-.9.1 1.2.2 2.4.8 2.3zm4.6-2.2c-.6.1-1.8.2-1.7.8.6-.1 1.7-.2 1.7-.8zm9.9-3.9c-.1-.6 1.1-.7 1.7-.8.1.7-1.1.8-1.7.8zm6.4-2.3c-.6.1-.5.7-1.7.8-.1-1.2.5-1.2 1.7-1.4v.6zm0 0c.6-.1.6-.1 1.2-.1.1.6-1.1.7-1.2.1zm3.4 3.9c-.1-.6-1.2-.5-1.2.1.6-.1 1.3 1.1 1.2-.1zm3.6-6.4c-.1-.6.5-.7 1.1-.7.1.6-.5.7-1.1.7zm6.4 4.3c-.6.1-1.8.2-1.7.8.6-.1 1.8-.2 1.7-.8zm11.4-.4c-.6.1-1.2.1-1.1.7.6 0 1.2-.1 1.1-.7zm7.7-1.9c.5-.6-.1-.6 0 0-1.2-.5-3.6.3-4.1 1.6 1.8-.2 4.3.2 4.1-1.6zm1.3 1.1c.6-.1 6.1.7 6.5-1.8-3.6 1-5.5-.1-6.5 1.8zm5.5-5.9c-.1-.6.5-.6 1.1-.7.1.6-.5.7-1.1.7zm10.5 2.7c-.6.1-1.2.1-1.1.7.5 0 1.1-.1 1.1-.7zm3 .3c.6-.1.6-.1 1.2-.1-.1-.6-.1-.6-.1-1.2-.6.1-.6.1-1.2.1.1.6.1.6.1 1.2zm14.7-4.2c-.6.1-1.2.1-1.1.7.6-.1 1.2-.2 1.1-.7zm-.8-2.4c-.1-.6.5-.6 1.1-.7.1.6-.5.7-1.1.7zm3.4 3.9c1.3 1.1 5.7 3.1 7.9 1.1-2-2.2-5.6-1.9-7.9-1.1zm9.1-5c-.1-.6.5-.6 1.1-.7.1.6-.5.7-1.1.7zm1.1 4.7c4-2.2 11.5.8 14.2-3-2.3 1.4-10.3.3-14.2 3zm3.1-5.1c-.1-.6.5-.6 1.1-.7.1.6-.5.7-1.1.7zm2.4-.2c-.1-.6.5-.6 1.1-.7.1.6-.5.7-1.1.7zm8.2-3.1c.6-.1.6-.1.7.5.1.6 1.2.5 2.4.4.7.5-4.1 1.6-6.5 1.8-.9-2.9 4.2.3 3.4-2.7zm4.1 6.3c.8 1.7 3-.9 0 0-.2-1.8-3.6.3-1.1.7-.1-.6.5-.7 1.1-.7zm2.4-.8c.1.6.1.6.1 1.2.6-.1 1.2.5 1.8.4-.1-.6-.2-2.4-.8-2.3.1.6-.5.6-1.1.7zm2.6-5.1c-.1-1.2 1.1-.7 1.8-.2.1 1.3-1.2.8-1.8.2zm4 5.1c.4-1.8-3.1-1.5-3-.3 1.2-.1 2.4-.3 3 .3zm-.5.6c-.6.1-1.2.1-1.1.7.5 0 1.1-.1 1.1-.7zm10.5-3.3c.2 1.8-3.6-.3-3.5 1.5 3.6-.3 6.1.7 8.3-1.3-1.7.1-2.4-1-4.8-.2-.1-1.8-2.3.8 0 0zm-.9-3.5c-.1-.6.5-.7 1.1-.7.1.6-.5.6-1.1.7zm10.7-1.6c-.9 3.1-3.6.3-6.5 1.2-1.3-1.1 4.7-1 6.5-1.2zm-6.7-.6c-.1-.6.5-.6 1.1-.7.1.6-.5.7-1.1.7zm9 5.9c1.2-.1 1.7-.8 2.3-1.4-1.2.1-3.1-.4-2.3 1.4zm1.8-6.8c-.1-.6.5-.6 1.1-.7.1.6-.5.6-1.1.7zm24.4 3.3c1.2-.1 4.3 1.4 5.4-.5-1.9-.4-4.3-.2-5.4.5-2.4-.4-5.4.5-9.6.8-1.8.2-6.7-.6-5.9 1.7 4.1-1.5 10.2-.3 15.5-2.5zm-10.6-3.3c-.1-.6.5-.6 1.1-.7.1.6-.5.6-1.1.7zm8.4-.8c-.1-.6 1.1-.7 1.7-.8.1.7-1.1.8-1.7.8zm8.7 3.5c1.7-.8 7.3 1.2 8.9-1.4-3.6-.9-4.8-.2-8.9 1.4zm8.5-6.2c.1 1.2-1.7 1.4-2.9 1.5.6-.7 1.8-.8 2.9-1.5zm1 18c.6-.1 3 .3 2.9-.9-1.7.8-2.4-.9-2.9.9zm2-11.6c-.6.1-1.8.2-1.7.8.6-.1 1.8-.2 1.7-.8zm7.5 10.2c-2.4-.4.2 1.8 0 0 1.1-.7 2.5 1.6 3-.3-.6-.5-3.1-.9-3 .3zm.9-17.6c1.2-.1 1.8.4 2.4.4.1 1.2-3.4 1.5-2.4-.4zm3 .4c-.1-.6 1.1-.7 1.2-.1.1 1.2-.6 0-1.2.1zm2.4 13c-.6.1-1.8.2-1.7.8.5-.1 1.7-.2 1.7-.8zm.6-7.3c-.6.1-1.8.2-1.7.8.5-.1 1.7-.2 1.7-.8zm-.6-6.5c.6-.1.6-.1 1.2-.1.1.6.1.6.1 1.2-.6.1-.6.1-1.2.1-.1-.6-.1-.6-.1-1.2zm5.3 6.1c-1.1.7-3.6-.3-3.5.9 1.3 1.1 3 .4 3.5-.9zm9.6-7.4c.1.6-.5 1.2-1.7 1.4 0-.7.5-1.3 1.7-1.4zm1.8 6.4c-.1-.6 1.1-.7 1.7-.8.1.7-1.1.8-1.7.8zm3-.2c-.1-.6.5-.7 1.1-.7.1.6-.5.6-1.1.7zm2.3-7.5c-.1-.6.5-.6 1.1-.7.1.6-.5.7-1.1.7zm3.1.4c1.8.4 1.7-.8 2.9-.9.8 1.7-1.7 1.4-2.9 1.5v-.6zm9.8 9.3c.7 1.2.6 0 0 0-3.6-.3-8.5-.5-9.5 2 3.6-.8 6.1.1 9.5-2zm3.6-6.9c-.6.1-.5.6-.5 1.2-.6.1-1.2-.5-1.3-1.1-1.7.8-3.9 3.4-4.2-.2 1.8.4 2.9-.9 6-.5v.6zm.7 7.8c.5-1.2 1.1-.7 1.2.5.6-.1 1.1-.7 1.1-1.3.6-.1.7 1.1 1.3 1.1.1 1.2-2.3.8-2.9.9 0-.7-.1-1.3-.7-1.2zm2.2-9.9c1.2.5 2 2.2 4.3 1.4 1.3 1.1-5.3 1.7-6 .5.5-1.2 1.2-.1 1.8-.2 0-.5-.1-1.1-.1-1.7zm-.7 12.8c1.3 1.1 1.7-.8 3 .3.1 1.2-4.1 1.6-3-.3zm2.7-3.3c-.1-.6.5-.6 1.1-.7.1.6-.5.7-1.1.7zm5.9-1.1c-.5.6-4 2.2-3.6.3 1.2-.1 2.3-1.4 3.6-.3zm-2.6 4.4c-.1-.6.5-.6 1.1-.7.1.6-.5.7-1.1.7zm1.8-.1c-.1-.6 1.1-.7 1.7-.8.1.6-1.1.7-1.7.8zm.3-10.9c1.7-.8 5.7-3.5 6 .1-2.5-.4-4.1.9-6-.1zm.3-3c-.1-.6.5-.6 1.1-.7.1.6-.5.6-1.1.7zm2.1 10c-.1-.6 1.1-.7 1.7-.8.1.7-1.1.8-1.7.8zm20.7-3.6c-.1-.6 1.1-.7 1.7-.8.1.6-1.1.7-1.7.8zm2.4-.2c-.1-.6.5-.6 1.1-.7.1.6-.5.6-1.1.7zM618.6 166.9c5.9-8.3 11.2-16 16.5-24.9 7.4 1.8 13.7 4.8 20 7.9 8.4 13.7 6.1 28.4 2.6 43.1 2.9 5.2.7 7.8 2.6 15.4-1.1.7-2.3.8-2.9 1.5-11.3-5.6-16.7-18.4-18.4-31.5-12.2 12.5-14.7 32-35.9 36.9-17.5-.9-23.6-14.8-29.7-29.3-1.9-28.1.7-54.3 11.7-73.3 8.6 2.3 17.8 3.9 21 12.6-7.3 19.9-13.6 44-12.1 67.9 11.6-5.2 16-16.5 23.7-25-.2-.6-.3-1.2.9-1.3-.4 2.5 1.8-.1 0 0zm77.5-36.3c-.6.1-1.2.1-1.1.7l-.6.1c1-1.9 2.8-2.1 3.9-4 .7 1.1.6-.1 0 0-.1-1.2.4-1.8 1.6-2.5.7 1.1.6-.1 0 0 .9-3.1 3.8-5.1 4.1-8.2 3.8-5.1 8.6-11.6 11.9-15.5.5-.6-.1-.6 0 0-.6.1-.7-.5-.7-1.1.6-.1 1.1-.7 1-1.9 7.1-1.2 14.7 2.9 21.5 4.7 6 6.1 8.3 11.9 9 19.7.5 5.4-1 9.1-2.4 14.1-4 16-3.7 33.4-6.6 48.8-2.3.8-.9-2.9-2.7-2.8.2 1.8-.2 4.2-.6 6.7-1.2.1-3 .3-4.2.4-12.4-18.2-7.1-46.4-7.2-68.6-1.8-.4-2.6 5-5.6 5.3-17.7 31.7-35.5 62.7-48 98.2-10.2.9-14.9-5.3-19.7-12.1 6.7-27.1 17-53.3 24.5-78 6-.5 10.3.3 13.5 3 1.8-.2 1.6-2.5 2.7-3.8 1.5 2.9 2.3-.8 3.5-1.5.3 3.3 1.7-1 2.2-1.7zm-1.7.8c.1.6.1.6-.5.6-.1-.6-.1-.6.5-.6zm4.6-9.4c.1.6.1.6-.5.6-.1-.6-.1-.6.5-.6zm120.6 50.2c.1.6 1.2.5 1.2-.1 1.5 2.9-7.5 3.7-5.4 7.1-.6.1-.5.7-1.1.7-.1-.6-.6-.5-1.2-.5.1.6.6.5 1.2.5-.5 1.2-1 1.9-1.5 3.1 1.2-.1 1.6-2.5 3.5-.9-2.2 2.6-5.1 4.1-7.9 6.1-.5 1.2 3.1.9 3-.3 1.4 2.3-5.1 4.1-4.4 5.2-5.3 1.7-9.2 5-13.2 7.8-30.3 11.1-53.1-15.2-47.2-44.1 4.4-11.2 12.7-20.4 18.4-31.1 2.4.4 6.2-4.8 8.9-8 2.3-.8 2.7-3.3 5.1-4.1-.1-.6-.7-.5-1.2-.5 1.7-1.4 7-2.4 6.8-4.8-.1-1.2 1.1-.7 1.8-.2 1.5-3.7 6.2-5.4 9.6-7.5 7.7-1.3 10.8-.3 17.5.3 3.8 2.1 8.3 5.3 11.3 5.6-.3 3 1.5 3.5 2.3 5.8-9.3 24.3-23.7 46-48.8 54.9-4.3-1.4-6.3 3.6-7.9 6.1-1.3-1.1-1.8.2-3 .3-.2-2.4-2.5-1.6-3.8-2.7-3.1 6.3-1.8 13.4 1.6 17.9 24.2 1.5 38.2-11.2 56.7-20 .2 1.8-1 1.9-.9 3.1-.8.3-.8.3-1.4.3zm-62.3-30.7c-1.1.7.1.6 0 0 .6-.1.6-.1.5-.6 1.8.4 1.1-1.3 1.6-2-1.2.1-1.7.8-1.6 2-.5 0-.5 0-.5.6zm2.7-3.8c1.1-.7 2.8-2.7 1.5-3.7.1 1.7-1.7 1.9-1.5 3.7-1.1.7 0 .6 0 0zm4.9-6.5c-1.2.1-1.7.8-1.7 1.4 1.2-.1 1.7-.8 1.7-1.4zm4.4-4.6c-1.7.8-3.5 1.5-3.3 3.3 1.7-.7 2.8-1.4 3.3-3.3zm30.9-4.5c-12.5 8.3-21.1 19.9-29.2 31.5 13.2-7.8 21.9-18.8 29.2-31.5zm-25.8 1.7c-.2-1.8-.2-2.4-2-2.2-.5 1.2-1 1.9-1 2.5 1.9.4 1.7-1.4 3-.3zm3.9-4c.4-1.8-2.6-2.2-2.4-.4 1.3 1.1 1.1-.7 2.4.4zm3.8-5.1c1.8-.2-.8-2.4 0 0-2.5-.4.1 1.8 0 0zm34.6 58.4c.6-.1 1.2-.1 1.1-.7-.6 0-1.2.1-1.1.7zm24.8 77.3c-.6.1-.5.7.1.6-3.4 2.7-1.8 7.4-3.2 11.1-.9 3.1-1.3 6.1-2.1 10.4-2.1 17-10.3 40.1 3.2 56.9-.6.1-.5.7-.5 1.2-14.9 1.3-25.7-11-27.8-28.3.6-.1.6.5 1.2.5-.1-1.2.2-4.8-1.5-2.9-.3-3.6-2-8.9.9-10.3-.7-1.1-1.4-1.7-2-2.2 1.6-2.5-.6-7.2 3-7.5-2.4-.4-1.5-3.5-1.7-5.3 3.1.9 2.7-3.2 5.2-2.3-.2-1.8-4.3-1.4-3.6.3-1.8.2-.9-3.5.9-3.7.7 1.1.6-.1 0 0-.1-1.2-.2-1.8-.2-2.4 1.9 1 1.6-2 3.5-1.5-1.9-1-.2-2.4-1.6-4.7-.6.1-.5 1.2-.4 1.8-1.9-1.6.8-4.9 1.9-5.6-.2-1.8-.3-3-1.5-3.5 1.1-1.3 2.9-.9 1.5-3.1.6-.1.6-.1 1.2-.1.7 1.1.6-.1 0 0-.1-.6-1.2-.5-1.2.1-1.8-.4 1-2.5.2-4.2.6-.1 1.2-.1 1-1.9 1.8.4 1.5-3.1-.2-2.4-.1-.6.5-.7.4-1.8 1.2-.1 1.2.5 1.8.4.1 1.2-.4 1.8-.4 2.4 1.9 1 1.6-2.5.4-2.4-.3-3 .2-4.2 1.4-4.9-.7-1.1-1.9-1-2.6-2.2 1.1-1.3 1.1-.7.3-3 .6-.1 1.1-.7 1.8-.2.8 1.7.6-.1 0 0-.1-.6-.1-1.2 1.1-1.3.9 2.9-.9 3.1-.8 4.9 1.8.4 2.8-2.1 2.5-5.6l.6-.1c.7.5.7 1.1.8 2.3-.6.1-.4 1.8-.4 2.4 1.1-.7 1.1-1.3.4-2.4 2.3-.8-.2-1.8.9-3.7.6-.1 2.4-.2 3-.3-1.8-.4-2-2.2-3.1-.9-.1-.6-.1-1.2-.7-1.1-.2-1.8 3.6-.3 4.6-2.2-.2-1.8-2.8 2.1-1.9-1 .6-.1 1.2-.1 1.8-.2-.1-1.2-.2-1.8-.3-3-2.7 3.8-.2-2.4.2-4.2-.6-.5-3.6-.3-1.4-2.3-.4 1.8 1.3 1.1 1.2-.1-.1-.6-.6-.5-.6.1l-.6.1c-.8-1.7.4-1.8.3-3 .6-.1.6.5.7 1.1.6-.1.5-1.2 1.1-1.3.1.6.6.5.6-.1.6-.1.5-.7 1.1-.7-1.4-1.7-1.6-4.7-2.4-6.4.6-.1.5-.7.5-1.2 1-2.5 1.3-6.1 2.3-8.6 1.2-.1 1.3 1.1 1.4 2.3-2.3 1.4-2.6 4.4-2.4 7.4 1.2-.1.4-1.8 1-2.5.6-.1.7 1.1 1.9 1 .6-.1.5-1.2.4-1.8 1.2-.1 1.7-.8 1.6-2-.1-.6-.1-.6-.7-.5-.2-1.8-1.2-.5-1.8-.4-.1-.6-.1-.6-.1-1.2 1.8-.2.4-1.8 2.9-1.5-5-2.6 1.3-5.5-.1-8.4-.6-.5-3-.3-3.6.3-4-4.5-11.3-5.6-13.2-13.3 6.2-5.4 17.5-6.4 20.5-13.8.6-.1 1.9 1 2.5 1 1.7-1.4 2.1-3.8 2.5-6.2.6-.1.7 1.1 1.3 1.1l.1.6c-1.1.7.1.6 0 0 .6-.1.6.5 1.2.5-.1-1.2-.7-1.1-1.3-1.1.4-1.8 1.5-3.1 1.3-6.1 1.2-.1.3-3 1.5-3.7-.3 3 2.4-.2 0 0-.1-1.2 1.7-1.4 3.5-1.5.4-1.8-3.5.9-3.1-.9 1.1-.7-.1-.6 0 0-.6.1-.5.6-1.1.7-.1-1.2.4-1.8 1-2.5.1 1.2 2.4.4 2.5 1 .5-1.2 4.3-6.4 1.2-7.3.3-3.6 3.8-5.1 2.8-9.3.6-.1.5-1.2.4-2.4.6-.1.5-.6.5-1.2 3-.3-.1-.6 1-1.9 2.7-3.3 3-7.5 4.6-9.4-.1-.6-1.2-.5-1.4-1.7.6-.1.5-.7.5-1.2l.6-.1c-.1-.6-.6-.5-.6.1-1.9-1 1.5-3.7.7-5.5 2.4-.2.1 1.2 1.4 1.7 2.6-4.4 4.2-7.6 5.5-13.1 1.2-.1 1.1-1.3 1-2.5.6-.1.5-1.2.4-1.8.6-.1.4-1.8-.2-1.8-.9-3.5 2.1-3.2 1.3-6.1l.6-.1c.1.6.1 1.2.2 1.8 1.2-.1 1.6-2.5-.2-1.8-.2-2.4 2.8-2.7 1.3-5.5 1.8-.2 3.6-.3 4.1-1-.1-.6-1.2-.5-2.4-.4 1.1-1.3 1.6-2.5 2-4.4.6-.1.5-.6.5-1.2 1.8-.2.3-3 1.5-3.1 2 2.2 2.2-2.6 2.7-3.8.6-.1.6-.1.5-.7 1.1-.7-.1-.6 0 0-.6.1-.6.1-.5.7-.8-1.7 1.7-8 4-8.8-.8-1.7-.7-1.1-.3-3 .6-.1 1.1-.7 1-1.9-.1-.6-.6.1-1.2.1-1.1.7.1 1.2.2 1.8-4.4 5.2-7.9 13.3-8 18.8-.6.1-.5.7-.5 1.2-4.6 2.8-5.4 7.1-6.1 12.6-2.9.9-.8-2.3-2.1-2.8 3.8-4.5 5.3-15.5 9.3-17.1-.1-.6-.2-2.4-.8-2.3 2.6-4.4 3.6-6.9 5.5-12.5 2.2-2 4-8.8 4.9-12.5 5.3-1.1 4.2-13.6 8.9-15.2-.1-1.2-.2-1.8-.3-3 9.1-13.4 15.6-28.5 27.9-39.2 7.7-1.3 13.7 5.4 17.8 10.5-1.4 11-12.7 13.2-13.4 25.3-15 21.8-21 48.8-34.6 72.9-.8 4.9-3.9 10.6-5.3 14.9.1.6 1.3 1.1.8 1.7-.5 1.2-2.2 2.6-3.2 4.5-4.1 14.8-9.2 26.1-12.8 39.7 6.1.7 14.1-4.2 20.6-6 4.3.8-1.3 5.5 1.1 5.3l-3.3 3.9c.1.6.7 1.1 1.3 1.1-4.9 5.9-10.5 10.6-18 14.2-1.6 1.9-3.8 4.5-8 5.5-6.3 4.2-2.9 14.7-9 20.7.1.6.7.5.8 2.3-5.2 9.5-6 21-10.1 28.6 2.6 8.8-6.5 15.6-6.1 26.4-.6.1-.7-1.1-1.3-1.1 1.5 2.9-1.4 4.9.1 8.4l-.6.1.2-1.1zm-29.9 50.8c-.4 2.4-2.5-1-.7-1.1.1.6.1 1.2.7 1.1zm6.2-46.3c.6-.6 0-.6 0 0-1.8.2.8 2.3 0 0zm1.2 13.7c.7 1.2.6 0 0 0-.1-1.2-.1-1.2-.7-1.1-.1-1.2 2.3-.8 2.2-2-.7-1.1-4.1 1.6-2.2 2 .1 1.2.1 1.2.7 1.1zm-1.2-7.1c.6-.1 1.2-.1 1.1-.7-.5.1-1.1.1-1.1.7zm.3 10.8c.6-.1 1.2-.1 1.1-1.3-.6.1-1.2.1-1.1 1.3zm.5-15.1c.8 1.7.8 2.3 2.6 2.2.1.6.1.6.1 1.2.6-.1.6-.1 1.2-.1-.1-1.2-.7-1.1-1.3-1.1-1.5-2.9.9-3.1.2-4.8 1.2.5 2.2-2 1-1.9-.5 1.2-1.2.1-1.8.2.1 1.2.7 1.1.8 1.7-2.4.2-1.6 2.5-2.8 2.6zm2.9 5.8c1.8-.2-2.1-2.8-1.9-1 .6-.1 1.9.4 1.9 1-3-.3.2 1.8 0 0zm.7-13.3c-.1-.6-.2-2.4-.8-2.3.2 1.8-2.3 1.4-.9 3.1l3.6-.3c-.2-1.8 1.7-1.4-.3-3 2.3-.8-.9-3.5 0 0-2.5-1-.4 2.4-1.6 2.5zm-1-11.4c1.8-.1-.9-2.9 0 0-1.1.7.1.6 0 0zm4.9-13c.1.6.1.6.1 1.2-1.2.1-1.1 1.3-1.7 1.4-.1-1.2-.2-1.8-.8-1.7-1.2.1.2 2.4-1.6 2.5-.1-.6-.2-1.8-1.4-1.7-.1-.6.5-.6.4-1.8.6-.1 1.2-.1 2.4-.2.1.6.7.5.6-.1.6-.1.5-.7 1.1-.7.2.5.3 1.1.9 1.1zm-2.8 15.9c-1.4-1.7.4-1.8-.9-2.9.1 1.2-2.2 2.6-.3 3-.1-.6.5-.7 1.2-.1zm-.6.6c-.5.6-2.2 2-.4 2.4 0-.5 2.8-2 .4-2.4zm.5 19.3c.1 1.2 2.1 3.4 2.5 1.6-.6.1-.7-.5-.7-1.1 2.4-.2-.8-2.3 0 0-.6 0-1.2-.6-1.8-.5zm3.7-40.7c-1 2.5-2.4.2-3.6.3.8-4.3 1.1-7.9 2-11 .7.5 1.8.4 1.7-.8 2.1 2.9-5 10.7-.1 11.5zm-2.7 4.4l-.6.1c-.1-.6-.2-1.8-.2-2.4.6-.1.7 1.1.8 2.3zm2.5 28.1c.5-.6-.1-.6 0 0-1.8.8 0 .6 0 0zm2-45.3c-.6.1-1.3-1.1-1.9-1-.1-.6-.1-1.2-.2-1.8.6-.1 1.2-.1 1.1-1.3 1.4 1.6-.4 1.8 1 4.1zm-1.3 53.7c.6-.1 1.2-.1 1.1-.7-.5 0-1.1.1-1.1.7zm.5-15.7c.1.6-1.1 1.3.2 2.4-.1-1.2 1-1.9-.2-2.4zm2.6-46c-.6.1-.5.6-.5 1.2-.6.1-1.2.1-1.1.7-1.2.1-.8-2.3-.3-3l.6-.1c0 .7 1.2.6 1.3 1.2zm-.6 7.9c-1.1.7-1.6-4.1-.3-3s.1.6.3 3zm-.4-12c1.2-.1.2 2.4.3 3l-.6.1c-.1-1.3-.3-2.5.3-3.1zm1.9 42c-.1-1.2-.1-1.2-.2-1.8-.6.1-.6.1-1.2.1.1.6.1.6.2 1.8.6-.1.6-.1 1.2-.1zm.3-3.1c-.1-.6-.1-.6-.1-1.2-.6.1-.6.1-1.2.1.1.6.1.6.1 1.2.6 0 .6 0 1.2-.1zm-1.1-26.4c-.2-1.8.4-1.8.6-.1l-.6.1zm2.6-5l-.1-.6c-.6.1-1.4-2.3-1.8-.4.6-.1.1.6.2 2.4 1.2-.2 1.1-1.4 1.7-1.4.7 1.7.6-.1 0 0zm.3-16.3c-2.4.2-2-2.2-.3-3 .1.6.2 1.8.3 3zm-.4 9c-.1-.6-.1-1.2 1.1-1.3.1.6.1 1.2-1.1 1.3zm.1 1.2c1.2-.1 1.8-.2 1.8.4-.5.1-1.7.2-1.8-.4zm.3 16.9c.1.6.1.6.1 1.2.6-.1.6-.1 1.2-.1 1.1-.7-.1-1.2-.2-1.8 1.1-.7-.1-.6 0 0-.6 0-.5.6-1.1.7zm10.6-64.8c-.6.1-.7-1.1-.1-1.2l.1 1.2zm-.1-1.2c-.1-.6-.1-1.2.5-1.2 0 .6.1 1.2-.5 1.2zm.2 2.4c-.1-.6-.1-.6-.1-1.2.6 0 .7 1.2.1 1.2zm5.1-17.3c-1.9 5.6-2.1 10.4-4.2 14.2 0 0-.1-.6-.6-.5 2-4.4.9-9.8 4.8-13.7zm-2.3 14.6c-.1-.6-.1-1.2.5-1.2 0 .6.1 1.2-.5 1.2zm.5-1.2c-.9-2.9.9-3.1.6-.1l-.6.1zm3.4-16c.1.6-.5.6-1.7.8-1.3-1.1-.1-1.2 1.7-.8zm1.2.5c.6-.1.7.5.7 1.1-1 1.4-1.1.2-.7-1.1zm3.8-12.3c-2.4.2-.9 3.1-2.7 3.8-2.5-1.6 2.5-6.2 2.2-9.8 2 1.6-.9 3.7 1 4.7-.6.1-.6.7-.5 1.3zm-2.5 13.4c.9 3.5-.9 3.7-.6.1l.6-.1zm2.8-9.3c-.6.1-.5.7-1.1.7-.1-1.2.5-1.2.3-3l.6-.1c.1 1.3.2 1.8.2 2.4zm.8-5.4c.1.6.1 1.2.2 1.8-.6.1-.5.6-.5 1.2l-.6.1c-.1-.6-.1-1.2-.2-1.8.6-.1.5-.6.5-1.2l.6-.1zm1.8-6.2c-1.8.2-1.7.8-2.9.9-.1-1.2 3.4-2.7.9-3.7-.1-.6-.1-.6.5-.6 1.2-.1 1.2-.1 1.8-.2.2 1.8-1.7 1.4.2 2.4-.6 0-.5.6-.5 1.2zm-.6 6.1c-.6.1-.6.1-1.2.1-.1-.6 1.1-.7 1.2-.1zm-.6 7.2c.6-.1 1.2-.1 1.1-1.3-.6.1-1.2.1-1.1 1.3zm1.4-18.2c-1.8-.4.4-2.4.2-4.2l.6-.1c.3 2.4-.3 3.1-.8 4.3zm.4 4.8c.1 1.2-.4 1.8-.6.1l.6-.1zm-.1-1.2c.6-.1.5-.7.5-1.2 1.2-.1.2 1.8.2 2.4l-.6.1c0-.7 0-.7-.1-1.3zm.5-7.8c.4-1.8.2-4.8 2.5-5.6.8 1.7-.7 4.8-2.5 5.6zm.6 27c.6-.1 1.2-.1 1.1-.7-.5.1-1.1.1-1.1.7zm3.6-35.2c-1.1.7.3 3-1.6 2.5-.2-1.8-.2-2.4 1.6-2.5zm-.9 10.9c-.5 1.2 2.4-.2 1.7-.8-.6-.5-1.7.8-1.7.8zm6-27.6c2.7 3.4-1.6 9.8-4.9 12.5 1.4-4.4 3.5-8.2 4.9-12.5zm-3.3 17.7c.1.6.1.6-1.1.7 0-.6 0-.6 1.1-.7zm1 4.1c1.2-.1 1.8-.2 1.7-.8-.5.1-1.7.2-1.7.8zm2.7-11c-2.4.2-.1-.6-.8-1.7l.6-.1c.1.6.1 1.2.2 1.8zm.9-2.5c-.6.1-.5.6-1.1.7-.1-.6-.2-1.8.4-1.8.1.5.7.5.7 1.1zm-.1-1.8c.1.6.1.6-.5.6-.1-.6-.1-.6.5-.6zm.6-.1l-.6.1c-.1-.6-.2-1.8.4-1.8.1 1.1.1 1.1.2 1.7zm19.8-48.7c-2.3.8-2.7 3.2-3.7 6.3 2.9-1.4 2-4.9 3.7-6.3zm2.2-2.6c-1.8.2-2.3.8-2.2 2 2.4.4 1.7-1.3 2.2-2zm1.9-5.6c-1.8-.4-1.1 1.3-1.6 2 1.2-.1 1.7-.8 1.6-2zm1.3-5.5c-.5 1.2-2.1 3.2.3 3.6-.6-1.2 1.6-3.2-.3-3.6zM934 164.6c-.1-.6-.1-.6-.1-1.2-.6.1-.5 1.3.1 1.2-2.7 3.8-4.7 8.2-8 11.5.8 1.7 2.3-.8 2.9-.9-1.4 4.9-6.6 6.6-5.4 13.7-3.3 3.9-5.3 8.3-9.2 11.6-5.8 2.3-8.6-2.3-13.5-3-2.1-3.4-5.3-5.6-6.9-9.6-.5-26.5 10.2-55.1 13.9-82.5 2.9-1.5 1.2-7.3 4-9.4-.1-1.2-1.3-1.1-.9-2.9 4.4-4.6 11.8-2.8 16.9.3 6.3 16.9-1.4 32.6-6 48.1.1 1.2-.3 3 .9 2.9-4.4 11.2-6.5 21.7-8.4 34.5 8.8-9.8 15.1-20.6 25.8-28.8.4 4.2-3.7 6.3-3.9 10.6-3.7.5.1 3.1-2.2 3.9zM918.4 62.4c2-11.6-4.5-37.6 14.8-37.4.7.5 2.7 2.8 3.1 1.5 6.3 15.7 1.5 37.2-17.9 35.9zm53.5 60.4c-.6.1-.5.6-.5 1.2.6 0 .5-.6.5-1.2.6-.1.8 1.7 1.2.5 1.2-.1.7 1.1.2 1.8 1.8.4 6.3 3.1 6.6 0 3.1 1.5 5.5.7 10.4 1.5-.1-1.2-1.8-.4-1.4-1.7 1.2-.1 1.2.5 2.4.4.1.6.1 1.2.2 1.8 2.9-1.5 3.5-.9 7.1-1.8.1.6.7.5.7 1.1-1.1.7.1.6 0 0 .6-.1 1.2-.1 1.8-.2.1.6-.5.7-1.1.7 1.9 1.6 5.5.7 7.8-.7 8.1 3.5 12.5 11.6 17.3 18.4 5.3 26-20.8 30.7-38.1 39.5-.1-.6-.1-1.2.4-1.8-11 5.2-18.7 7.1-31.4 6.4-.2-1.8-1.9-1.6-4.3-1.4.4-2.4-1.4-2.3-3.8-2.1-1.5-2.9-3.5-5.1-1.2-7.1-.1-1.2-2.9.9-2-1.6 1.2-.1 1.9 1 3-.3-.2-1.8-3-.3-3.7-1.5-.3-3-1.1-5.9-1.4-9.5 3.6-.3 3.4 3.9 7.5 3 .1.6.7.5 1.2.5-.1-.6-.7-.5-1.2-.5-.1-1.2 2.9-.9 1.8.4 1.2-.1.4-1.8 1.7-1.4.7 1.1.6-.1 0 0-.1-.6.5-.6 1.1-.7.9 2.9 3.6-.3 6 .1-.1-1.2-1.4-1.7-.2-1.8 2.5 1.6 11.4-1 12.3-4.1 2.9-.9 7.2-.6 7.6-2.5 4.6-2.2 12.1-5.9 14.9-9.1 1.1-1.3.6-.1 1.8.4 1.2-.1.4-1.8 2.3-1.4-.7-.5-2.1-2.8.4-2.4.1.6.1.6.1 1.2.6-.1.5-1.2-.1-1.2-.1-.6 1.1-1.3 1-1.9-16.3-1-35.4 1.9-48.1-5.4-6.6-6.1-8.1-23.4-2-29.3.6-.1.6.5 1.2.5.6-.1 1.1-1.3.5-1.2 7.5-3.7 14.9-8.5 24.2-12.4 7.5-3.7 15.1-6.7 21.5-8.5 1.8.4 2.9-.9 5.9-1.7l.1.6c.6-.1.5-.7-.1-.6 1.7-1.4 2.4-.2 5.3-1.1-.1-1.2-.7-1.1-1.9-1-.1-1.2 1.8-.2 2.9-.9.1.6-.5.7-.4 1.8 4-2.2 8.4-.7 10.4-4.5 2.5 1 6 .1 8.9-1.4 5.5 1.3 7.3 7.2 11.2 10.5.7 1.1-2.8 2.7.2 2.4-.9 3.7-3.2 5.1-5.9 8.3-1.8.2-2-1.6-3.7-1.5-19.8 5.9-42.6 13.9-59.1 24.4zm-17 47.2c-.6.1-1.2.1-1.1.7.6 0 1.2-.1 1.1-.7zm.9-59.1c1.2.5 3.5-1.5 1.6-2 .1 1.3-1.7.8-1.6 2zm4-2.1c-.6.1-.7-.5-1.2-.5-.4 2.4 1.4 2.3 1.2.5.5-.7 2.3-.8 2.2-2.6-1.2.1-2.9.8-2.2 2.6zm2.9-2.1c.6-.1.6-.1 1.2-.1-.1-.6-.1-.6-.1-1.2-.6.1-.6.1-1.2.1 0 .6 0 .6.1 1.2zm4.5-2.8c-.1-1.2 2.4-.2 2.2-2-1.1.1-4.1 1-2.2 2zm3.2 56.9c.6-.1.6-.1 1.2-.1.1.6.1.6.1 1.2-.6.1-.6.1-1.2.1 0-.6 0-.6-.1-1.2zm.3-58.4c.6-.1.6-.1 1.2-.1-.1-.6-.1-.6-.1-1.2-.6.1-.6.1-1.2.1.1.6.1.6.1 1.2zm1.3 22.2c-.6.1-1.2.1-1.1.7.6-.1 1.2-.1 1.1-.7zm3.3-24.4c1.2-.1 1.7-.8 1.7-1.4-1.2.1-2.4.2-1.7 1.4zm.4 59c-.1-.6.5-.7 1.1-.7.1.6-.5.6-1.1.7zm7.7-62.7c-.6.1-1.2.1-1.1.7.6-.1 1.2-.1 1.1-.7zm1.1-1.3c-2.4-.4.2 1.8 0 0 2.5.4-.1-1.8 0 0zm2.4-.8c.1.6.1.6.1 1.2.6-.1.6-.1 1.2-.1-.1-1.2-.7-1.2-1.3-1.1-.7-.6-.6 0 0 0zm30.8-13c-.1-.6.5-.6 1.1-.7.1.6-.5.7-1.1.7zm65 14.2c-.1-.6.5-.7.5-1.2.5-1.2 3.6-.3 4.1-1.6 10.4 2.1 19 3.8 23.1 9.4 1.4 1.7 3.2 8.8 3.1 7.6 0 13.3-2 25.5-2.2 36.3-4.8 7.6-.9 16.9-3.9 24.4.8 2.3 1 4.1-.1 6 .9 2.9 3 6.4 1.4 9.5-21.6 1.3-29.6-28.1-25.9-48.3-12.7 13.2-19.6 30.6-28.5 46.5-9.1 5.6-14.5-.5-21.4-4.1-.9-3.5-1.8-6.5-4.9-7.4.3-31.3 11.6-60.6 17.9-91.9.5-.6 1.7-.8 2.9-.9-.2-1.8-.3-3.6-1-4.7 6.2-31.9 15.3-66.4 22.2-97.7-1.4-1.7-1.1-5.9 0-7.2 4.1-1.6 9.4-2.6 13.9 0 6.8 8.4 5.5 21.8 6.4 31.4-3.5 22-8.6 39.9-12.2 60.1-5.5 26.4-14.5 47.6-20.1 72.8 9.8-12.3 15.3-24.8 24.5-37.1.4-.1 2.6-2.1.2-1.9zm-48.9 46.4c-.1-.6-.1-.6-.1-1.2-.6.1-.6.1-1.2.1.1.6.1.6.1 1.2.6 0 .6 0 1.2-.1zm.5-8.4c.1 1.2-1.1 1.3-.3 3 1.2.5 2.6-3.8.3-3zm3.2-4.5c.7 1.1-1.6 2 .2 2.4-.1-.6 1-2.5-.2-2.4zm.3-9.7c.6-.1 1.2-.1 1.1-.7-.5.1-1.1.1-1.1.7zm.1 7.2c.6-.1 1.2-.1 1.1-.7-.6.1-1.2.1-1.1.7zm2.5-12.2c-.1-.6-.1-.6-.1-1.2-.6.1-.6.1-1.2.1.1.6.1.6.1 1.2.6-.1.6-.1 1.2-.1zm1-9.8c-.4 1.8-2 5-.6 6.7-.2-1.8 1.9-5.6.6-6.7zm-.5 7.9c.6-.1 1.2-.1 1.8-.2-.1-.6-.2-1.8-.2-2.4 1.7-.8-.9-2.9 0 0-.6.7-.5 1.9-1.6 2.6zm4.1-14.8c.6-.1 1.2-.1 1.1-.7-.6.1-1.2.1-1.1.7zm3.5-22c.6-.1 1.2-.1 1.1-.7-.6.1-1.2.1-1.1.7zm.4-1.8c1.3 1.1 2.5 1.6 3.6-.3-1.7.7-3.1-1.6-3.6.3zm.1 7.8c.6-.1 1.2-.1 1.1-.7-.5 0-1.1.1-1.1.7zm1.3-5.5c.6-.1 1.2-.1 1.1-.7-.5 0-1.1.1-1.1.7zm32 21.2c-1.2.1-1.5-2.9.4-1.8-.5.7-.4 1.3-.4 1.8zm-57.9 142.3c.6 0 2.4.1 1.2-.5 2.4.1 7.3-.8 9.6.5-.6 0-1.8.5-.6.6-6.7 2.1-17.4-.9-22.3 1.8-7.7-2.8-19.1-1.6-26.4-.2 1.2.7 3 .2 5.4.9-.1 1.8-1.9 1.1-.1 2.4-.6 0-1.2-.1-1.8-.1 0 .6 1.8.7 1.8.1.6 0 .6.6 1.8.7-15.2 2.8-27.2 2.8-39.8 2.1-10.9 2.4-23 3.6-32.5 1.9-1.9 1.7 1.7 2.5-.2 3.6-30.8 2.6-56.1 4.9-80.4 9 0-.6-.6-.6-1.2-.7 0 .6.6.6 1.2.7 0 .6-1.2.5-1.3 1.1-.6 0-1.2-.1-1.2-.7.6 0 .7-1.2.1-1.2-1.2-.1 0 .6-.1 1.2-6.7.9-10.2-.5-18.2 2.7-4.7-1.4-6.6-.3-7.9 2-32 3.7-63.1 11.7-92.8 16.8-6.7 2.1-14.7 4.6-22.3 1.8-1.2.5-.2 3.6-1.4 4.1-20.7 4.3-42.7 11.6-64 17.1-1.8-.7-2.3-1.9-5.3-1.5-1.1-2.5-2.1-4.9-4.5-6.2.6-.6.7-1.8.8-3 43-17.6 91.9-22.8 137.6-35.4.6 0 .6.6.5 1.2 21.9-5.5 40.6-6.3 61.3-11.2 15.6-.4 34.4-3 49.6-5.8 27.1-1 62.1-4.6 94.6-5.9 0 .6-1.3 1.1.5 1.2-1.9 1.1-1.2.5-1.9 2.3-.6 0-.5-1.2-1.1-1.3-1.2-.1-1.8.5-1.9 1.7-1.2-.1-1.2.5-1.3 1.1-1.8-.7.1-1.8.7-2.4-1.7-2.5-4.3 1.6-5.4.3-.7 1.8 1.1 1.3 2.3 1.3-1.3 1.7 2.3 1.9 2.4.7.6 0 .6 0 1.2.1.5 1.2.6 0 0 0 0-.6 0-.6.1-1.2.5 1.2 2.4.7 3-.4 3 .2 3.2-2.8 3.8-3.4 10.2-.1 19.3-1.4 30 .4 0-.6-.6-.6-1.2-.7 8.5-.8 18.7-.8 27.7-.4l-.1.8zm-276.6 28.2c-1.2-.1-1.8.5-1.9 1.1 1.2.1 1.8-.5 1.9-1.1zm4.2-.4c-1.2-.1-1.8.5-1.9 1.1 1.2.1 1.9-.5 1.9-1.1zm7.9-2c0 .6 0 .6-.1 1.2 1.2.1 1.2-.5 1.3-1.1.6-.6 0-.6 0 0-.6 0-.6 0-1.2-.1zm2.4-.4c.6 0 1.2.1 1.2-.5-.5-.1-1.1-.1-1.2.5zm3.6.1c.6 0 1.2.1 1.2-.5-.5 0-1.1-.1-1.2.5zm4.9-2.1c-.7 1.2-3 .4-3.1 1.6 1.2.1 4.9-.3 3.1-1.6zm4.3-.4c-1.2.5-3-.8-3 .4.6 0 .6.6.5 1.2 1.2.2 2.4.2 2.5-1.6zm5.4-.9l1.8.7c1.2-1.1-1.7-1.9-1.8-.7zm2.4-.5c.6 0 .5 1.2 1.1 1.3.7-1.2 2.5-1.1 3.7-1.6 0-.6.1-1.8-.5-1.8-1.3 1.1-1.3 2.3-2.4.5 0 1.1-1.8.4-1.9 1.6zm7.2.4c0-.6.6-.6.7-1.2-.6 0-1.2-.1-1.8-.7 0 .6-.1 1.2-.1 1.8.6.1.6.1 1.2.1zm2-2.9c-1.4 2.9 4.7 2 3 .2-.1 1.2-2.4.4-3-.2zm6 .3c.6 0 1.2.7 2.4.7 1.2-1.7-2.4-1.9-2.4-.7zm4.8-.9c.7-.6.1-.6 0 0-2.3-.8-.1 1.8 0 0zm4.2.2c0-.6 0-.6.1-1.2-.6 0-.6 0-1.2-.1 0 .6 0 .6-.1 1.2.6.1.6.1 1.2.1zm9.1-.7c-1.6-3.1-6.5-1.5-7.8.2 3.5 1.3 5.5-2.2 7.8-.2zm3.6-1c.1-1.2-.5-1.2-1.7-1.3 0 .6 0 .6-.1 1.2.6 0 1.2 0 1.8.1zm9.1-1.4c-1.8.5-1.7-1.9-2.9-2-.2 3.6-4.8-.3-5.5 2.7 1.8-.4 6.6.4 8.4-.7zm4.3-2.1c-.1 1.2-.1 2.4 1.1 1.9.1-1.3-.5-1.9-1.1-1.9zm1.8 1.2c.6 0 1.2.1 1.2-.5-.6 0-1.2-.1-1.2.5zm1.8-.5c4.2-.4 6.6.3 9.1-1.3-.6 0-1.8-.1-1.8-.7.6-.6 0-.6 0 0-1.8.5-5.4-.3-7.3 2zm9.7-1.3c.6 0 1.2.1 1.2-.5-.6 0-1.2-.1-1.2.5zm.7-1.1c.6 0 1.2.1 1.2-.5-.6-.1-1.2-.1-1.2.5zm4.7.8c0-.6 0-.6.1-1.2-.6 0-.6 0-1.2-.1 0 .6 0 .6-.1 1.2.6.1.6.1 1.2.1zm-.3 5.4c.6 0 1.2.1 1.2-.5-.5 0-1.1-.1-1.2.5zm2.7-5.8c-2.9-.8-.7 1.7 0 0 2.4.1 4.2-.4 6.1-.9 0 .6.6.6.6 0 .6 0 .6.6 1.2.7-.4-3-2.9-2.6-4.1-1.4-1.9.5-3.7-.2-3.8 1.6zm6.7-.9h-.6c0-.6.6-.6.6 0zm10.9-2.4c0 .6-1.2.5-1.3 1.1-2.4-.1-3.5-1.4-6-.9-.1 1.2-2.5 1.1-2 2.9 2.5-1.7 5.4.3 7.9-2 1.8.7 7.8.4 8.5-.8-2.5 1.1-1.1-1.9-2.3-1.9 0 .6-1.2.5-1.8.5.6 2.5-2.4 1.7-3 1.1-.5-.7-.6-.1 0 0zm12.7-1.2c-.7 1.2-3-.8-3.7 1.6 1.8-.5 2.9 2 3.6.2 1.8.7 1.3-1.7.1-1.8zm0 1.2v.6c-.7 0-.6-.6 0-.6zm3.5.2c2.5-1.1 5.4.3 7.3-2-2.3-1.9-3.1 1.6-6 .3.7-2.4-1.8-.1 0 0-.6.6-1.2.5-1.3 1.7zm8-2.6c.6 0 1.2.1 1.2-.5-.6 0-1.2-.1-1.2.5zm4.6 3.9c-.6-.6-2.4-.7-2.4.5.6 0 2.4.1 2.4-.5zm2-2.9c.1-1.2-.5-1.2-1.7-1.3 0 .6 0 .6-.1 1.2.6 0 1.2 0 1.8.1zm.6-.6l1.8.7c1.2-1.1-1.8-1.9-1.8-.7zm5.4-.3c1.2.1 3 .2 3.1-1-1.2-1.3-3.6-.8-3.1 1-3.6-.8-1.3 1.7 0 0zm4.2-.4c.6 0 1.2.1 1.2-.5-.5-.1-1.1-.1-1.2.5zm2.5-1.7c-.7 1.2-1.3 2.3 1.1 1.9.1-1.2-.5-1.8-1.1-1.9zm.8 8.5c.6 0 1.2.1 1.2-.5-.6-.1-1.2-.1-1.2.5zm1.9-1.7c.6 0 1.2.1 1.2-.5-.6-.1-1.2-.1-1.2.5zm6.3-6.3c0 .6 1.2.7 1.2.1-1.2-.1-.5-1.8-2.3-1.3-.1 1.2-.1 2.4.5 2.4 0-.6 0-1.2.6-1.2zm5.4-.3c-.5-.6-.6 0 0 0 1.1 2.5 1.9-1.7 0 0zm6.1-.9c-.6.6-.7 1.2-.7 1.8 2.5-1.1 4.2.8 4.9-1.5-1.1-1.3-.6 0-2.4-.1 0-.6-.6-.6-.6 0-.6-.2-.6-.2-1.2-.2zm1.8.1h-.6c0 .6.6.6.6 0zm10.8 0c-1.1-1.3-2.4-.7-3 .4-3 .4.7-1.8-1.1-1.9-.7 1.8-4.2.4-3.8 2.8 1.9-1.1 5.9 1.5 4.9-.9 1.7.7 1.7.7 3-.4zm7 3.3c.6 0 1.2.1 1.2-.5-.5 0-1.1-.1-1.2.5zm2.7-4c0 .6-.1 1.2-.7 1.2 0-.7.1-1.3.7-1.2zm11.9.6c1.2-.5.1-1.8-.6-.6.1-1.8-2.4.5 0 0-.1 1.2-.7 1.2-.7 1.8 1.8-.5 2.9 2 3-.4.7-1.2 1.8-.5 1.9-2.3-.6 0-1.2-.1-1.8-.1 0 .6-.1 1.8-.1 2.4-.5-.1-1.7-.2-1.7-.8zm8.4 1c1.2.1 1.8.1 3 .2.5 1.2.6 0 0 0 0-.6 0-.6.6-.6 0-.6 0-.6.1-1.2.6-.6 0-.6 0 0-.6 0-.6-.6-.5-1.2-1.2-.1-1.2.5-1.8.5-.5-1.2-2.3-1.3-4.1-1.4-.7 1.2-1.3 1.7-1.3 2.3 1.3-1.7 4.2-.4 5.5-.9 1 1.3-.8 1.2-1.5 2.3zm21 1.1c-.1 1.2-1.9 1.1-3.1 1 0-.6.7-1.2.7-1.8 1.2.2 1.8.8 2.4.8zm17.4-.8c-.7 1.2 2.9 1.4 3 .2.6 0 .6-.6 1.2-.5 0 .6 0 .6-.1 1.2-6.7 2.1-10.2.7-16.3 1 0-.6 1.2-.5 1.3-1.1.6 0 .6 0 1.2.1 0-.6-1.2-.7-1.2-.1-8.3-2.2 1.8.1 3.1-2.2.6.6 2.9 2.6 3.6.8.6 0 1.2.1 1.8.1.1-1.2-1.8-.7-1.1-1.9 1.8.1 3.6.2 4.2.8-3.1 2.2 1.8.7 2.3 1.3v.6c-1.2-.3-1.8-.3-3-.3zm5.4.8c0 .6-1.2.5-1.2-.1.6.1.6.1 1.2.1zm.7-1.7c0 .6-.1 1.8-.7 1.8 0-.6-.5-1.2-1.1-1.3 0-.6 1.2-.6 1.8-.5zm3 .1c0 .6-.6.6-1.2.5-.1 1.8 3.6-.4 2.3 1.9-.5-1.2-4.8.3-3.5-2.6.6.1 1.8.2 2.4.2zm4.8.3c0 .6 0 .6-.6.6 0 .6 1.2.7 1.8.7-.7 1.8-3-.2-3.6-.8 0-.6 1.2-.6 2.4-.5zm3.5 1.4c0 .6-.6.6-1.2.5 0-.6.6-.6 1.2-.5zm5.7-5.1c0-.6-1.2-.7-1.2-.1-2.4-.7-3.1 1.6-3.6-.8 3.1-1.6 8.4.4 12-.6 0 .6-.6.6-1.2.5 0 .6 1.2.7 1.8.7-.1 1.2-1.8.5-1.9 1.1.1-1.2-2.4-.7-2.9-2-.7 1.2-1.9 2.3-4.3 1.6v-.6c.7.1.7.1 1.3.2zm9.6-.7c0 .6-.6.6-1.2.5 0-.6.6-.6 1.2-.5zm3 .1c-1.2-.1 0 .6-.1 1.8-1.8.5-.5-1.8-2.3-1.9 4.9-.9 10.2.5 14.4-.4-2.5 3.4-9.6 1.2-12 .5zm17.4.9c0-.6-.6-.6-.6 0-1.8-.1-3.1 2.2-4.2.4 1.3-1.1 3.7-1.6 6.1-1.5-.6.6-.1 2.4-1.9 1.7v-.6h.6zm4.9-.9c0 .6-.6.6-1.2.5 0-.6.6-.6 1.2-.5zm5.9.9c-1.3 1.7-3.6-.2-5.4-.3 1.3-1.7 3 .8 5.4.3zm4.8.2c-.1 1.2-2.4-.1-3.6.4.1-1.1 2.4.2 3.6-.4zm2.5-.4c0 .6-.6.6-1.2.5 0-.6.6-.6 1.2-.5zm9.5 1.1c-.1 1.2-2.4-.1-3.6.4 0-1.2 2.4.1 3.6-.4z" class="st0"/></svg>
