<?xml version="1.0" encoding="utf-8"?>
<!-- Generator: Adobe Illustrator 18.1.0, SVG Export Plug-In . SVG Version: 6.00 Build 0)  -->
<!DOCTYPE svg PUBLIC "-//W3C//DTD SVG 1.1//EN" "http://www.w3.org/Graphics/SVG/1.1/DTD/svg11.dtd">
<svg version="1.1" id="Ebene_1" xmlns="http://www.w3.org/2000/svg" xmlns:xlink="http://www.w3.org/1999/xlink" x="0px" y="0px"
	 width="143.63px" height="140.92px" viewBox="0 0 143.63 140.92" style="enable-background:new 0 0 143.63 140.92;"
	 xml:space="preserve">
<g>
	<path style="fill:#34495E;" d="M62.82,66.79c0.27,1.02,0.42,2.38,0.43,3.74c0,1.36-0.16,2.72-0.43,3.74
		c-0.24,1.02-0.57,1.7-0.57,1.7s-0.34-0.68-0.57-1.7c-0.27-1.02-0.42-2.38-0.43-3.74c0-1.36,0.16-2.72,0.43-3.74
		c0.24-1.02,0.57-1.7,0.57-1.7S62.58,65.77,62.82,66.79z M81.38,65.09c0,0-0.33,0.68-0.57,1.7c-0.27,1.02-0.42,2.38-0.43,3.74
		c0,1.36,0.16,2.72,0.43,3.74c0.24,1.02,0.57,1.7,0.57,1.7s0.34-0.68,0.57-1.7c0.27-1.02,0.42-2.38,0.43-3.74
		c0-1.36-0.16-2.72-0.43-3.74C81.71,65.77,81.38,65.09,81.38,65.09z M97.28,91.67c-1.72,0-3.4-0.22-5.03-0.62
		c2,1.68,4.18,2.94,6.5,3.45c6.76,1.49,10.49,0.93,14.8,0.3c3.62-0.54,7.73-1.14,13.5-0.36c7.99,1.08,14.01,7.89,14.63,16.57
		c0.66,9.11-4.84,16.69-14,19.31c-0.41,0.12-0.83,0.18-1.24,0.18c-1.96,0-3.76-1.29-4.32-3.26c-0.68-2.39,0.7-4.88,3.09-5.56
		c7.47-2.14,7.63-8.2,7.5-10.01c-0.26-3.58-2.52-7.71-6.86-8.3c-4.51-0.61-7.51-0.17-10.98,0.35c-4.53,0.67-9.67,1.43-18.05-0.41
		c-6.81-1.49-13.02-6.45-18.47-14.71c0.33,5.18,1.41,10.25,3.88,13.76c1.94,2.76,4.6,4.31,8.13,4.76
		c18.41,2.35,23.05,6.79,24.84,13.66c1.57,6.02-0.77,16.34-10.78,19.36c-1.81,0.55-3.66,0.81-5.47,0.81
		c-4.22,0-8.22-1.45-10.99-4.14c-3.23-3.14-4.4-7.5-3.19-11.98c0.65-2.4,3.12-3.82,5.52-3.17c2.4,0.65,3.82,3.12,3.17,5.52
		c-0.35,1.32-0.11,2.33,0.77,3.18c1.31,1.27,4.24,2.18,7.59,1.17c5.81-1.75,4.69-8.41,4.67-8.47c-0.55-2.1-1.3-4.97-17.28-7.01
		c-6.09-0.78-10.92-3.64-14.35-8.51c-1.22-1.73-2.24-3.71-3.06-5.9c-0.83,2.2-1.84,4.17-3.06,5.9c-3.43,4.87-8.25,7.73-14.35,8.51
		c-15.98,2.04-16.73,4.91-17.27,7.01c-0.02,0.06-1.13,6.72,4.67,8.47c3.34,1.01,6.28,0.1,7.59-1.17c0.88-0.85,1.12-1.86,0.77-3.18
		c-0.65-2.4,0.77-4.87,3.17-5.52c2.4-0.65,4.87,0.77,5.52,3.17c1.21,4.48,0.04,8.84-3.19,11.98c-2.77,2.69-6.77,4.14-10.99,4.14
		c-1.81,0-3.66-0.27-5.47-0.81c-10.01-3.02-12.35-13.34-10.78-19.36c2.37-9.08,10.9-11.88,24.84-13.66
		c3.53-0.45,6.19-2.01,8.13-4.76c2.47-3.51,3.55-8.58,3.88-13.76c-5.45,8.27-11.66,13.22-18.47,14.71
		c-8.38,1.84-13.51,1.08-18.05,0.41c-3.47-0.51-6.47-0.95-10.98-0.35c-4.34,0.59-6.6,4.71-6.86,8.3c-0.13,1.81,0.02,7.87,7.5,10.01
		c2.39,0.68,3.77,3.17,3.09,5.56c-0.56,1.97-2.37,3.26-4.32,3.26c-0.41,0-0.83-0.06-1.24-0.18c-9.16-2.62-14.66-10.2-14-19.31
		c0.63-8.67,6.64-15.49,14.63-16.57c5.77-0.78,9.88-0.18,13.5,0.36c4.31,0.64,8.04,1.19,14.8-0.3c2.34-0.51,4.53-1.78,6.53-3.45
		c-1.64,0.41-3.32,0.63-5.05,0.63c-4.15,0-8.57-1.17-13.21-3.51c-14.02-7.07-19.62-6.7-21.72-5.85c-0.83,0.34-1.88,1.02-2.67,3.29
		c-0.81,2.35-3.37,3.6-5.72,2.79c-2.35-0.81-3.6-3.37-2.79-5.72c1.47-4.27,4.09-7.2,7.79-8.7c6.41-2.61,15.67-0.65,29.16,6.15
		c5.15,2.6,9.64,3.2,13.34,1.79c3.1-1.18,5.25-3.59,6.55-5.52c-6.63-12.17-23.63-14.35-23.63-38.03C33.45,17.18,50.63,0,71.81,0
		s38.36,17.18,38.36,38.36c0,25.05-16.44,25.07-24.4,36.81c1.13,1.98,3.5,5.29,7.31,6.74c3.7,1.41,8.19,0.81,13.34-1.79
		c13.48-6.8,22.75-8.76,29.16-6.15c3.7,1.5,6.32,4.43,7.79,8.7c0.81,2.35-0.44,4.91-2.79,5.72c-2.35,0.81-4.91-0.44-5.72-2.79
		c-0.78-2.28-1.84-2.96-2.67-3.29c-2.09-0.85-7.7-1.22-21.72,5.85C105.85,90.5,101.43,91.67,97.28,91.67z M65.59,70.77
		c0-3.54-1.5-6.41-3.35-6.41s-3.35,2.87-3.35,6.41c0,3.54,1.5,6.41,3.35,6.41S65.59,74.31,65.59,70.77z M84.73,70.77
		c0-3.54-1.5-6.41-3.35-6.41c-1.85,0-3.35,2.87-3.35,6.41c0,3.54,1.5,6.41,3.35,6.41C83.23,77.18,84.73,74.31,84.73,70.77z"/>
</g>
</svg>
